# Blender 4.3.0
# www.blender.org
mtllib ActivateButton.mtl
o ActivateButton
v -0.040489 0.029130 0.002726
v -0.029164 0.040456 0.002852
v -0.028893 0.040456 -0.021474
v -0.040218 0.029130 -0.021599
v -0.040489 -0.029130 0.002726
v -0.040489 0.029130 0.002726
v -0.040218 0.029130 -0.021599
v -0.040218 -0.029130 -0.021599
v -0.029164 -0.040456 0.002852
v -0.040489 -0.029130 0.002726
v -0.040218 -0.029130 -0.021599
v -0.028893 -0.040456 -0.021474
v 0.029093 -0.040456 0.003499
v -0.029164 -0.040456 0.002852
v -0.028893 -0.040456 -0.021474
v 0.029363 -0.040456 -0.020826
v 0.040418 -0.029130 0.003625
v 0.029093 -0.040456 0.003499
v 0.029363 -0.040456 -0.020826
v 0.040688 -0.029130 -0.020700
v 0.040418 0.029130 0.003625
v 0.040418 -0.029130 0.003625
v 0.040688 -0.029130 -0.020700
v 0.040688 0.029130 -0.020700
v 0.029093 0.040456 0.003499
v 0.040418 0.029130 0.003625
v 0.040688 0.029130 -0.020700
v 0.029363 0.040456 -0.020826
v -0.029164 0.040456 0.002852
v 0.029093 0.040456 0.003499
v 0.029363 0.040456 -0.020826
v -0.028893 0.040456 -0.021474
v -0.040489 0.029130 0.002726
v -0.033872 0.026359 0.009491
v -0.026467 0.033765 0.009573
v -0.029164 0.040456 0.002852
v -0.040489 -0.029130 0.002726
v -0.033872 -0.026359 0.009491
v -0.033872 0.026359 0.009491
v -0.040489 0.029130 0.002726
v -0.029164 -0.040456 0.002852
v -0.026467 -0.033765 0.009573
v -0.033872 -0.026359 0.009491
v -0.040489 -0.029130 0.002726
v 0.029093 -0.040456 0.003499
v 0.026248 -0.033765 0.010159
v -0.026467 -0.033765 0.009573
v -0.029164 -0.040456 0.002852
v 0.040418 -0.029130 0.003625
v 0.033653 -0.026359 0.010241
v 0.026248 -0.033765 0.010159
v 0.029093 -0.040456 0.003499
v 0.040418 0.029130 0.003625
v 0.033653 0.026359 0.010241
v 0.033653 -0.026359 0.010241
v 0.040418 -0.029130 0.003625
v 0.029093 0.040456 0.003499
v 0.026248 0.033765 0.010159
v 0.033653 0.026359 0.010241
v 0.040418 0.029130 0.003625
v -0.029164 0.040456 0.002852
v -0.026467 0.033765 0.009573
v 0.026248 0.033765 0.010159
v 0.029093 0.040456 0.003499
v 0.033653 0.026359 0.010241
v 0.026248 0.033765 0.010159
v 0.033653 -0.026359 0.010241
v 0.026248 -0.033765 0.010159
v -0.026467 -0.033765 0.009573
v -0.026467 0.033765 0.009573
v -0.033872 0.026359 0.009491
v -0.033872 -0.026359 0.009491
vn -0.7071 0.7071 -0.0079
vn -0.9999 -0.0000 -0.0111
vn -0.7071 -0.7071 -0.0079
vn -0.0000 -1.0000 -0.0000
vn 0.7071 -0.7071 0.0079
vn 0.9999 -0.0000 0.0111
vn 0.7071 0.7071 0.0079
vn -0.0000 1.0000 -0.0000
vn -0.5078 0.5000 0.7015
vn -0.7149 -0.0000 0.6992
vn -0.5078 -0.5000 0.7015
vn -0.0079 -0.7071 0.7071
vn 0.4921 -0.5000 0.7126
vn 0.6992 -0.0000 0.7149
vn 0.4921 0.5000 0.7126
vn -0.0079 0.7071 0.7071
vn -0.0111 -0.0000 0.9999
vt 0.121455 0.624277
vt 0.120713 0.625046
vt 0.095496 0.605822
vt 0.104480 0.596930
vt 0.124997 0.624425
vt 0.144196 0.598590
vt 0.125673 0.625254
vt 0.152406 0.608201
vt 0.125524 0.628800
vt 0.150742 0.648024
vt 0.124782 0.629569
vt 0.141757 0.656916
vt 0.121240 0.629421
vt 0.102041 0.655256
vt 0.120564 0.628592
vt 0.093831 0.645645
vt 0.860745 0.845684
vt 0.876089 0.870356
vt 0.875381 0.871203
vt 0.852836 0.853884
vt 0.898479 0.847261
vt 0.881129 0.870567
vt 0.905676 0.856093
vt 0.881764 0.871470
vt 0.904097 0.893869
vt 0.881552 0.876550
vt 0.896187 0.902069
vt 0.880844 0.877396
vt 0.858454 0.900492
vt 0.875804 0.877186
vt 0.851257 0.891660
vt 0.875168 0.876283
vt 0.598220 0.894336
vt 0.594005 0.888346
vt 0.631663 0.895734
vt 0.636364 0.890117
vt 0.637773 0.856409
vt 0.595414 0.854638
vt 0.600115 0.849021
vt 0.633557 0.850419
s 0
usemtl DefaultMaterial.001
f 1/1/1 2/2/1 3/3/1
f 4/4/1 1/1/1 3/3/1
f 5/5/2 6/1/2 7/4/2
f 8/6/2 5/5/2 7/4/2
s 1
f 9/7/3 10/5/3 11/6/3
s 0
f 12/8/3 9/7/3 11/6/3
f 13/9/4 14/7/4 15/8/4
f 16/10/4 13/9/4 15/8/4
f 17/11/5 18/9/5 19/10/5
f 20/12/5 17/11/5 19/10/5
f 21/13/6 22/11/6 23/12/6
f 24/14/6 21/13/6 23/12/6
f 25/15/7 26/13/7 27/14/7
f 28/16/7 25/15/7 27/14/7
f 29/2/8 30/15/8 31/16/8
f 32/3/8 29/2/8 31/16/8
f 33/17/9 34/18/9 35/19/9
f 36/20/9 33/17/9 35/19/9
f 37/21/10 38/22/10 39/18/10
f 40/17/10 37/21/10 39/18/10
f 41/23/11 42/24/11 43/22/11
f 44/21/11 41/23/11 43/22/11
f 45/25/12 46/26/12 47/24/12
s 1
f 48/23/12 45/25/12 47/24/12
s 0
f 49/27/13 50/28/13 51/26/13
f 52/25/13 49/27/13 51/26/13
f 53/29/14 54/30/14 55/28/14
f 56/27/14 53/29/14 55/28/14
f 57/31/15 58/32/15 59/30/15
f 60/29/15 57/31/15 59/30/15
f 61/20/16 62/19/16 63/32/16
f 64/31/16 61/20/16 63/32/16
f 65/33/17 66/34/17 67/35/17
f 66/34/17 68/36/17 67/35/17
f 68/36/17 66/34/17 69/37/17
f 66/34/17 70/38/17 69/37/17
f 69/37/17 70/38/17 71/39/17
f 72/40/17 69/37/17 71/39/17
