# Blender 4.3.0
# www.blender.org
mtllib LeverOpen.mtl
o SubMesh_0.007
v 0.009465 0.000000 -0.000000
v 0.009465 -0.010746 -0.018613
v 0.009465 0.176655 -0.018613
v 0.009465 0.165909 0.000000
v 0.009465 0.176655 0.018613
v 0.009465 0.000000 -0.000000
v 0.009465 0.176655 -0.018613
v 0.009465 0.165909 0.000000
v 0.009465 0.176655 0.018613
v 0.009465 -0.010746 0.018613
v 0.009465 0.176655 -0.018613
v 0.009465 -0.010746 -0.018613
v -0.009465 -0.010746 -0.018613
v -0.009465 0.176655 -0.018613
v 0.009465 0.198147 -0.018613
v -0.009465 0.198147 -0.018613
v -0.009465 -0.010746 0.018613
v 0.009465 -0.010746 0.018613
v -0.009465 0.176655 0.018613
v 0.009465 0.176655 0.018613
v -0.009465 0.198147 0.018613
v 0.009465 0.198147 0.018613
v -0.009465 -0.021492 0.000000
v 0.009465 -0.021492 0.000000
v 0.009465 -0.010746 0.018613
v -0.009465 -0.010746 0.018613
v 0.009465 -0.010746 -0.018613
v 0.009465 -0.021492 0.000000
v -0.009465 -0.021492 0.000000
v -0.009465 -0.010746 -0.018613
v 0.009465 0.000000 -0.000000
v 0.009465 -0.010746 0.018613
v 0.009465 -0.021492 0.000000
v 0.009465 -0.010746 -0.018613
v 0.009465 0.208894 0.000000
v 0.009465 0.198147 -0.018613
v -0.009465 0.198147 -0.018613
v -0.009465 0.208894 0.000000
v 0.009465 0.198147 0.018613
v 0.009465 0.208894 0.000000
v -0.009465 0.208894 0.000000
v -0.009465 0.198147 0.018613
v 0.009465 0.198147 0.018613
v 0.009465 0.176655 0.018613
v 0.009465 0.208894 0.000000
v 0.009465 0.165909 0.000000
v 0.009465 0.198147 -0.018613
v 0.009465 0.176655 -0.018613
v -0.071016 0.176655 -0.018613
v -0.089947 0.176655 -0.018613
v -0.089947 0.198147 -0.018613
v -0.071016 0.198147 -0.018613
v -0.071016 0.208894 0.000000
v -0.071016 0.198147 -0.018613
v -0.089947 0.198147 -0.018613
v -0.089947 0.208894 -0.000000
v -0.071016 0.198147 0.018613
v -0.071016 0.208894 0.000000
v -0.089947 0.208894 -0.000000
v -0.089947 0.198147 0.018613
v -0.089947 0.176655 0.018613
v -0.071016 0.176655 0.018613
v -0.071016 0.198147 0.018613
v -0.089947 0.198147 0.018613
v -0.071016 0.165909 -0.000000
v -0.071016 0.176655 0.018613
v -0.089947 0.176655 0.018613
v -0.089947 0.165909 0.000000
v -0.071016 0.176655 -0.018613
v -0.071016 0.165909 -0.000000
v -0.089947 0.165909 0.000000
v -0.089947 0.176655 -0.018613
v -0.089947 0.198147 -0.018613
v -0.089947 0.176655 -0.018613
v -0.089947 0.208894 -0.000000
v -0.089947 0.165909 0.000000
v -0.089947 0.176655 0.018613
v -0.089947 0.198147 0.018613
v -0.009465 0.165909 0.000000
v -0.009465 -0.021492 0.000000
v -0.009465 -0.010746 0.018613
v -0.009465 0.176655 0.018613
v -0.009465 -0.010746 -0.018613
v -0.009465 -0.021492 0.000000
v -0.009465 0.165909 0.000000
v -0.009465 0.176655 -0.018613
vn 1.0000 -0.0000 -0.0000
vn -0.0000 -0.0000 -1.0000
vn -0.0000 -0.0000 1.0000
vn -0.0000 -0.8660 0.5000
vn -0.0000 -0.8660 -0.5000
vn -0.0000 0.8660 -0.5000
vn -0.0000 0.8660 0.5000
vn -1.0000 -0.0000 -0.0000
vt 0.465949 0.277096
vt 0.465716 0.276961
vt 0.465716 0.279605
vt 0.465949 0.279471
vt 0.466182 0.279605
vt 0.466182 0.276961
vt 0.330447 0.274757
vt 0.330447 0.277401
vt 0.330853 0.277401
vt 0.330853 0.274757
vt 0.330447 0.274488
vt 0.330853 0.274488
vt 0.332899 0.273232
vt 0.332492 0.273232
vt 0.332899 0.275876
vt 0.332492 0.275876
vt 0.332899 0.276145
vt 0.332492 0.276145
vt 0.332359 0.277783
vt 0.331953 0.277783
vt 0.331953 0.278016
vt 0.332359 0.278016
vt 0.331953 0.277550
vt 0.332359 0.277550
vt 0.465949 0.276827
vt 0.343977 0.275307
vt 0.344210 0.275307
vt 0.344210 0.274901
vt 0.343977 0.274901
vt 0.343744 0.275307
vt 0.343744 0.274901
vt 0.466182 0.279874
vt 0.465949 0.280008
vt 0.465716 0.279874
vt 0.331822 0.274757
vt 0.332228 0.274757
vt 0.332228 0.274488
vt 0.331822 0.274488
vt 0.343977 0.273931
vt 0.344210 0.273931
vt 0.344210 0.273525
vt 0.343977 0.273525
vt 0.343744 0.273931
vt 0.343744 0.273525
vt 0.334274 0.275876
vt 0.333868 0.275876
vt 0.333868 0.276145
vt 0.334274 0.276145
vt 0.345300 0.275775
vt 0.345533 0.275775
vt 0.345533 0.275369
vt 0.345300 0.275369
vt 0.345067 0.275775
vt 0.345067 0.275369
vt 0.470275 0.279037
vt 0.470275 0.278768
vt 0.470043 0.279171
vt 0.470043 0.278633
vt 0.469810 0.278768
vt 0.469810 0.279037
vt 0.474132 0.278220
vt 0.474132 0.275576
vt 0.473900 0.275711
vt 0.473900 0.278355
vt 0.474365 0.275711
vt 0.474365 0.278355
s 0
usemtl DefaultMaterial.007
f 1/1/1 2/2/1 3/3/1
f 1/1/1 4/4/1 5/5/1
f 6/1/1 7/3/1 8/4/1
f 6/1/1 9/5/1 10/6/1
f 11/7/2 12/8/2 13/9/2
f 14/10/2 11/7/2 13/9/2
f 15/11/2 11/7/2 14/10/2
f 16/12/2 15/11/2 14/10/2
f 17/13/3 18/14/3 19/15/3
f 18/14/3 20/16/3 19/15/3
f 19/15/3 20/16/3 21/17/3
f 20/16/3 22/18/3 21/17/3
f 23/19/4 24/20/4 25/21/4
f 26/22/4 23/19/4 25/21/4
f 27/23/5 28/20/5 29/19/5
f 30/24/5 27/23/5 29/19/5
f 31/1/1 32/6/1 33/25/1
f 31/1/1 33/25/1 34/2/1
f 35/26/6 36/27/6 37/28/6
f 38/29/6 35/26/6 37/28/6
f 39/30/7 40/26/7 41/29/7
f 42/31/7 39/30/7 41/29/7
f 43/32/1 44/5/1 45/33/1
f 44/5/1 46/4/1 45/33/1
f 45/33/1 46/4/1 47/34/1
f 46/4/1 48/3/1 47/34/1
f 49/35/2 50/36/2 51/37/2
f 52/38/2 49/35/2 51/37/2
f 53/39/6 54/40/6 55/41/6
f 56/42/6 53/39/6 55/41/6
f 57/43/7 58/39/7 59/42/7
f 60/44/7 57/43/7 59/42/7
f 61/45/3 62/46/3 63/47/3
f 64/48/3 61/45/3 63/47/3
f 65/49/4 66/50/4 67/51/4
f 68/52/4 65/49/4 67/51/4
f 69/53/5 70/49/5 71/52/5
f 72/54/5 69/53/5 71/52/5
f 73/55/8 74/56/8 75/57/8
f 74/56/8 76/58/8 75/57/8
f 75/57/8 76/58/8 77/59/8
f 78/60/8 75/57/8 77/59/8
f 79/61/8 80/62/8 81/63/8
f 82/64/8 79/61/8 81/63/8
f 83/65/8 84/62/8 85/61/8
f 86/66/8 83/65/8 85/61/8
o SubMesh_1.004
v -0.009465 0.176655 -0.018613
v -0.071016 0.176655 -0.018613
v -0.071016 0.198147 -0.018613
v -0.009465 0.198147 -0.018613
v -0.009465 0.208894 0.000000
v -0.009465 0.198147 -0.018613
v -0.071016 0.198147 -0.018613
v -0.071016 0.208894 0.000000
v -0.009465 0.198147 0.018613
v -0.009465 0.208894 0.000000
v -0.071016 0.208894 0.000000
v -0.071016 0.198147 0.018613
v -0.071016 0.198147 0.018613
v -0.071016 0.176655 0.018613
v -0.009465 0.176655 0.018613
v -0.009465 0.198147 0.018613
v -0.009465 0.165909 0.000000
v -0.009465 0.176655 0.018613
v -0.071016 0.176655 0.018613
v -0.071016 0.165909 -0.000000
v -0.009465 0.176655 -0.018613
v -0.009465 0.165909 0.000000
v -0.071016 0.165909 -0.000000
v -0.071016 0.176655 -0.018613
vn -0.0000 -0.0000 -1.0000
vn -0.0000 0.8660 -0.5000
vn -0.0000 0.8660 0.5000
vn -0.0000 -0.0000 1.0000
vn -0.0000 -0.8660 0.5000
vn -0.0000 -0.8660 -0.5000
vt 0.416656 0.843017
vt 0.417534 0.845193
vt 0.418138 0.844949
vt 0.417260 0.842773
vt 0.417863 0.842527
vt 0.418742 0.844707
vt 0.418468 0.842290
vt 0.419346 0.844465
vt 0.419950 0.844221
vt 0.419071 0.842046
vt 0.419675 0.841802
vt 0.420554 0.843978
vt 0.420278 0.841558
vt 0.421157 0.843734
s 0
usemtl DefaultMaterial.007
f 87/67/9 88/68/9 89/69/9
f 90/70/9 87/67/9 89/69/9
f 91/71/10 92/70/10 93/69/10
f 94/72/10 91/71/10 93/69/10
f 95/73/11 96/71/11 97/72/11
f 98/74/11 95/73/11 97/72/11
f 99/74/12 100/75/12 101/76/12
f 102/73/12 99/74/12 101/76/12
f 103/77/13 104/76/13 105/75/13
f 106/78/13 103/77/13 105/75/13
f 107/79/14 108/77/14 109/78/14
f 110/80/14 107/79/14 109/78/14
