# Blender 4.3.0
# www.blender.org
mtllib Open2.mtl
o SubMesh_0.006
v 0.000000 -0.207284 -0.178162
v 0.000000 -0.207284 -0.024087
v 0.000000 -0.158465 -0.024087
v 0.040426 -0.158465 -0.115802
v 0.040426 -0.207284 -0.115802
v 0.040426 -0.207284 -0.178162
v -0.017032 0.207284 -0.017032
v -0.017032 0.158465 -0.017032
v -0.024087 0.158465 0.000000
v -0.024087 0.207284 0.000000
v -0.017032 0.158465 0.017032
v -0.017032 0.207284 0.017032
v -0.017032 0.207284 0.017032
v -0.017032 0.158465 0.017032
v 0.000000 0.158465 0.024087
v 0.000000 0.207284 0.024087
v 0.000000 0.207284 0.024087
v 0.000000 0.158465 0.024087
v 0.040426 0.158465 0.024087
v 0.040426 0.207284 0.024087
v 0.050430 0.207284 -0.109422
v 0.050430 0.158465 -0.109422
v 0.040426 0.158465 -0.115802
v 0.040426 0.207284 -0.115802
v 0.000000 0.207284 -0.024087
v 0.000000 0.158465 -0.024087
v -0.017032 0.158465 -0.017032
v -0.017032 0.207284 -0.017032
v 0.040426 0.207284 0.024087
v 0.050430 0.207284 0.008440
v 0.040426 0.207284 -0.024087
v 0.000000 0.207284 -0.024087
v 0.000000 0.207284 0.024087
v -0.017032 0.207284 -0.017032
v -0.024087 0.207284 0.000000
v -0.017032 0.207284 0.017032
v 0.040426 0.158465 0.024087
v 0.000000 0.158465 0.000000
v 0.050430 0.158465 0.008440
v 0.031172 0.158465 0.000000
v 0.040426 0.158465 -0.009254
v 0.050430 0.158465 -0.109422
v 0.040426 0.158465 -0.115802
v 0.040426 0.207284 0.024087
v 0.040426 0.158465 0.024087
v 0.050430 0.158465 0.008440
v 0.050430 0.207284 0.008440
v 0.050430 0.207284 0.008440
v 0.050430 0.207284 -0.109422
v 0.040426 0.207284 -0.115802
v 0.040426 0.207284 -0.024087
v 0.050430 0.158465 0.008440
v 0.050430 0.158465 -0.109422
v 0.050430 0.207284 -0.109422
v 0.050430 0.207284 0.008440
v -0.024087 0.158465 0.000000
v -0.017032 0.158465 -0.017032
v -0.017032 0.158465 0.017032
v 0.000000 0.158465 0.000000
v 0.000000 0.158465 -0.024087
v 0.000000 0.158465 0.024087
v 0.040426 0.158465 0.024087
v 0.040426 0.207284 -0.024087
v 0.040426 0.207284 -0.115802
v 0.000000 0.207284 -0.024087
v 0.040426 0.207284 -0.178162
v 0.000000 0.207284 -0.178162
v 0.000000 0.207284 -0.218508
v 0.000000 0.207284 -0.178162
v 0.030123 0.207284 -0.218508
v 0.040426 0.207284 -0.178162
v 0.040426 0.207284 -0.208478
v 0.040426 0.207284 -0.115802
v 0.040426 0.158465 -0.115802
v 0.040426 0.207284 -0.178162
v 0.040426 -0.158465 -0.115802
v 0.040426 -0.207284 -0.178162
v 0.040426 -0.158465 -0.009254
v 0.040426 0.158465 -0.009254
v 0.050430 0.172218 -0.030353
v 0.057950 0.172218 -0.030353
v 0.057951 0.175350 -0.019856
v 0.050430 0.175350 -0.019856
v 0.050430 0.175350 -0.019856
v 0.057951 0.175350 -0.019856
v 0.057951 0.186006 -0.017319
v 0.050430 0.186006 -0.017319
v 0.050430 0.186006 -0.017319
v 0.057951 0.186006 -0.017319
v 0.057951 0.193532 -0.025280
v 0.050430 0.193532 -0.025280
v 0.050430 0.193532 -0.025280
v 0.057951 0.193532 -0.025280
v 0.057950 0.190400 -0.035778
v 0.050430 0.190400 -0.035778
v 0.050430 0.190400 -0.035778
v 0.057950 0.190400 -0.035778
v 0.057950 0.179743 -0.038314
v 0.050430 0.179743 -0.038314
v 0.050430 0.179743 -0.038314
v 0.057950 0.179743 -0.038314
v 0.057950 0.172218 -0.030353
v 0.050430 0.172218 -0.030353
v 0.057950 0.190400 -0.035778
v 0.057951 0.193532 -0.025280
v 0.057951 0.186006 -0.017319
v 0.057950 0.179743 -0.038314
v 0.057950 0.172218 -0.030353
v 0.057951 0.175350 -0.019856
v 0.050430 0.192039 -0.077124
v 0.057950 0.192039 -0.077124
v 0.057951 0.182260 -0.082060
v 0.050430 0.182260 -0.082060
v 0.050430 0.182260 -0.082060
v 0.057951 0.182260 -0.082060
v 0.057951 0.173095 -0.076058
v 0.050430 0.173095 -0.076058
v 0.050430 0.173095 -0.076058
v 0.057951 0.173095 -0.076058
v 0.057951 0.173711 -0.065121
v 0.050430 0.173711 -0.065121
v 0.050430 0.173711 -0.065121
v 0.057951 0.173711 -0.065121
v 0.057950 0.183490 -0.060185
v 0.050430 0.183490 -0.060185
v 0.050430 0.183490 -0.060185
v 0.057950 0.183490 -0.060185
v 0.057950 0.192654 -0.066187
v 0.050430 0.192654 -0.066187
v 0.050430 0.192654 -0.066187
v 0.057950 0.192654 -0.066187
v 0.057950 0.192039 -0.077124
v 0.050430 0.192039 -0.077124
v 0.057950 0.183490 -0.060185
v 0.057951 0.173711 -0.065121
v 0.057951 0.173095 -0.076058
v 0.057950 0.192654 -0.066187
v 0.057950 0.192039 -0.077124
v 0.057951 0.182260 -0.082060
v 0.031172 0.158465 0.000000
v 0.000000 0.158465 0.000000
v 0.000000 -0.158465 0.000000
v 0.031172 -0.158465 0.000000
v -0.017032 -0.158465 -0.017032
v -0.017032 -0.207284 -0.017032
v -0.024087 -0.158465 0.000000
v -0.024087 -0.207284 0.000000
v -0.017032 -0.158465 0.017032
v -0.017032 -0.207284 0.017032
v -0.017032 -0.207284 0.017032
v 0.000000 -0.207284 0.024087
v 0.000000 -0.158465 0.024087
v -0.017032 -0.158465 0.017032
v 0.000000 -0.207284 0.024087
v 0.040426 -0.207284 0.024087
v 0.040426 -0.158465 0.024087
v 0.000000 -0.158465 0.024087
v 0.050430 -0.207284 -0.109422
v 0.040426 -0.207284 -0.115802
v 0.040426 -0.158465 -0.115802
v 0.050430 -0.158465 -0.109422
v 0.000000 -0.207284 -0.024087
v -0.017032 -0.207284 -0.017032
v -0.017032 -0.158465 -0.017032
v 0.000000 -0.158465 -0.024087
v 0.040426 -0.207284 -0.024087
v 0.050430 -0.207284 0.008440
v 0.040426 -0.207284 0.024087
v 0.000000 -0.207284 -0.024087
v 0.000000 -0.207284 0.024087
v -0.017032 -0.207284 -0.017032
v -0.024087 -0.207284 0.000000
v -0.017032 -0.207284 0.017032
v 0.000000 -0.158465 0.000000
v 0.040426 -0.158465 0.024087
v 0.050430 -0.158465 0.008440
v 0.031172 -0.158465 0.000000
v 0.040426 -0.158465 -0.009254
v 0.050430 -0.158465 -0.109422
v 0.040426 -0.158465 -0.115802
v 0.040426 -0.207284 0.024087
v 0.050430 -0.207284 0.008440
v 0.050430 -0.158465 0.008440
v 0.040426 -0.158465 0.024087
v 0.050430 -0.207284 0.008440
v 0.040426 -0.207284 -0.024087
v 0.040426 -0.207284 -0.115802
v 0.050430 -0.207284 -0.109422
v 0.050430 -0.158465 0.008440
v 0.050430 -0.207284 0.008440
v 0.050430 -0.207284 -0.109422
v 0.050430 -0.158465 -0.109422
v 0.000000 -0.158465 0.000000
v 0.000000 -0.158465 -0.024087
v -0.017032 -0.158465 -0.017032
v -0.017032 -0.158465 0.017032
v -0.024087 -0.158465 0.000000
v 0.000000 -0.158465 0.024087
v 0.040426 -0.158465 0.024087
v 0.000000 0.158465 -0.024087
v 0.000000 0.207284 -0.024087
v 0.000000 0.207284 -0.178162
v 0.000000 -0.158465 -0.024087
v 0.000000 -0.207284 -0.178162
v 0.000000 -0.158465 0.000000
v 0.000000 0.158465 0.000000
v 0.040426 -0.207284 -0.115802
v 0.040426 -0.207284 -0.024087
v 0.000000 -0.207284 -0.024087
v 0.040426 -0.207284 -0.178162
v 0.000000 -0.207284 -0.178162
v 0.000000 -0.207284 -0.218508
v 0.030123 -0.207284 -0.218508
v 0.000000 -0.207284 -0.178162
v 0.040426 -0.207284 -0.178162
v 0.040426 -0.207284 -0.208478
v 0.050430 -0.172218 -0.030353
v 0.050430 -0.175350 -0.019856
v 0.057951 -0.175350 -0.019856
v 0.057950 -0.172218 -0.030353
v 0.050430 -0.175350 -0.019856
v 0.050430 -0.186006 -0.017319
v 0.057951 -0.186006 -0.017319
v 0.057951 -0.175350 -0.019856
v 0.050430 -0.186006 -0.017319
v 0.050430 -0.193532 -0.025280
v 0.057951 -0.193532 -0.025280
v 0.057951 -0.186006 -0.017319
v 0.050430 -0.193532 -0.025280
v 0.050430 -0.190400 -0.035778
v 0.057950 -0.190400 -0.035778
v 0.057951 -0.193532 -0.025280
v 0.050430 -0.190400 -0.035778
v 0.050430 -0.179743 -0.038314
v 0.057950 -0.179743 -0.038314
v 0.057950 -0.190400 -0.035778
v 0.050430 -0.179743 -0.038314
v 0.050430 -0.172218 -0.030353
v 0.057950 -0.172218 -0.030353
v 0.057950 -0.179743 -0.038314
v 0.057951 -0.186006 -0.017319
v 0.057951 -0.193532 -0.025280
v 0.057950 -0.190400 -0.035778
v 0.057950 -0.179743 -0.038314
v 0.057950 -0.172218 -0.030353
v 0.057951 -0.175350 -0.019856
v 0.050430 -0.192039 -0.077124
v 0.050430 -0.182259 -0.082060
v 0.057951 -0.182259 -0.082060
v 0.057950 -0.192039 -0.077124
v 0.050430 -0.182259 -0.082060
v 0.050430 -0.173095 -0.076058
v 0.057951 -0.173095 -0.076058
v 0.057951 -0.182259 -0.082060
v 0.050430 -0.173095 -0.076058
v 0.050430 -0.173710 -0.065121
v 0.057951 -0.173710 -0.065121
v 0.057951 -0.173095 -0.076058
v 0.050430 -0.173710 -0.065121
v 0.050430 -0.183490 -0.060185
v 0.057950 -0.183490 -0.060185
v 0.057951 -0.173710 -0.065121
v 0.050430 -0.183490 -0.060185
v 0.050430 -0.192654 -0.066187
v 0.057950 -0.192654 -0.066187
v 0.057950 -0.183490 -0.060185
v 0.050430 -0.192654 -0.066187
v 0.050430 -0.192039 -0.077124
v 0.057950 -0.192039 -0.077124
v 0.057950 -0.192654 -0.066187
v 0.057951 -0.173095 -0.076058
v 0.057951 -0.173710 -0.065121
v 0.057950 -0.183490 -0.060185
v 0.057950 -0.192654 -0.066187
v 0.057950 -0.192039 -0.077124
v 0.057951 -0.182259 -0.082060
v 0.031172 0.158465 0.000000
v 0.031172 -0.158465 0.000000
v 0.040426 -0.158465 -0.009254
v 0.040426 0.158465 -0.009254
vn -1.0000 -0.0000 -0.0000
vn 1.0000 -0.0000 -0.0000
vn -0.7071 -0.0000 -0.7071
vn -0.7071 -0.0000 0.7071
vn -0.3827 -0.0000 0.9239
vn -0.0000 -0.0000 1.0000
vn 0.5377 -0.0000 -0.8431
vn -0.3827 -0.0000 -0.9239
vn -0.0000 1.0000 -0.0000
vn -0.0000 -1.0000 -0.0000
vn 0.8425 -0.0000 0.5387
vn -0.0000 -0.9583 0.2859
vn -0.0000 -0.2316 0.9728
vn -0.0000 0.7267 0.6869
vn -0.0000 0.9583 -0.2859
vn -0.0000 0.2316 -0.9728
vn -0.0000 -0.7267 -0.6869
vn -0.0000 0.4506 -0.8927
vn -0.0000 -0.5478 -0.8366
vn -0.0000 -0.5479 -0.8366
vn -0.0000 -0.9984 0.0562
vn -0.0000 -0.4506 0.8927
vn -0.0000 0.5479 0.8366
vn -0.0000 0.9984 -0.0562
vn -0.0000 0.9583 0.2859
vn -0.0000 0.2316 0.9728
vn -0.0000 -0.7267 0.6869
vn -0.0000 -0.9583 -0.2859
vn -0.0000 -0.2316 -0.9728
vn -0.0000 0.7267 -0.6869
vn -0.0000 -0.4506 -0.8927
vn -0.0000 0.5479 -0.8366
vn -0.0000 0.9984 0.0562
vn -0.0000 0.4506 0.8927
vn -0.0000 -0.5479 0.8366
vn -0.0000 -0.5478 0.8366
vn -0.0000 -0.9984 -0.0562
vn 0.7071 -0.0000 0.7071
vt 0.281659 0.410413
vt 0.276449 0.410413
vt 0.276449 0.409490
vt 0.346498 0.273505
vt 0.346498 0.272078
vt 0.349233 0.272078
vt 0.165798 0.423274
vt 0.165798 0.387700
vt 0.153388 0.387700
vt 0.153388 0.423274
vt 0.140977 0.387700
vt 0.140977 0.423274
vt 0.159593 0.423274
vt 0.159593 0.387700
vt 0.147182 0.387700
vt 0.147182 0.423274
vt 0.467979 0.270804
vt 0.467979 0.288739
vt 0.470323 0.288739
vt 0.470323 0.270804
vt 0.147182 0.387700
vt 0.147182 0.423274
vt 0.156961 0.417587
vt 0.148016 0.413882
vt 0.151413 0.407004
vt 0.165141 0.408206
vt 0.162249 0.424569
vt 0.170924 0.411803
vt 0.173320 0.417587
vt 0.170924 0.423371
vt 0.156961 0.417587
vt 0.165141 0.407004
vt 0.148865 0.412162
vt 0.154555 0.407004
vt 0.151413 0.404708
vt 0.148016 0.380429
vt 0.151413 0.378262
vt 0.327287 0.267721
vt 0.327287 0.291988
vt 0.340382 0.291988
vt 0.340382 0.267721
vt 0.148016 0.380429
vt 0.328069 0.289767
vt 0.364260 0.289767
vt 0.364260 0.271832
vt 0.328069 0.271832
vt 0.170924 0.411803
vt 0.170924 0.423371
vt 0.162914 0.411634
vt 0.165141 0.409408
vt 0.162249 0.424569
vt 0.094282 0.405097
vt 0.094282 0.402622
vt 0.095464 0.405097
vt 0.094282 0.399887
vt 0.095464 0.399887
vt 0.156923 0.398354
vt 0.156923 0.399534
vt 0.156042 0.398354
vt 0.155741 0.399534
vt 0.155741 0.398647
vt 0.344221 0.273505
vt 0.097218 0.454860
vt 0.091738 0.454860
vt 0.091738 0.462509
vt 0.097218 0.462509
vt 0.091738 0.465309
vt 0.097218 0.465309
vt 0.097218 0.457543
vt 0.091738 0.457543
vt 0.097218 0.452060
vt 0.091738 0.452060
vt 0.097218 0.462509
vt 0.097218 0.454860
vt 0.097218 0.452060
vt 0.091738 0.459825
vt 0.097218 0.459825
vt 0.097218 0.465309
vt 0.040654 0.457124
vt 0.033005 0.454842
vt 0.027204 0.460325
vt 0.042503 0.464889
vt 0.036702 0.470372
vt 0.029053 0.468090
vt 0.097218 0.451782
vt 0.091738 0.451782
vt 0.091738 0.458909
vt 0.097218 0.458909
vt 0.091738 0.465586
vt 0.097218 0.465586
vt 0.097218 0.454700
vt 0.091738 0.454700
vt 0.091738 0.462669
vt 0.097218 0.462669
vt 0.097218 0.458460
vt 0.091738 0.458460
vt 0.091738 0.462669
vt 0.091738 0.454700
vt 0.034405 0.470577
vt 0.041531 0.466980
vt 0.041980 0.459010
vt 0.027728 0.466204
vt 0.028176 0.458234
vt 0.035302 0.454637
vt 0.157237 0.395408
vt 0.156326 0.395408
vt 0.276449 0.408986
vt 0.344023 0.273505
s 0
usemtl DefaultMaterial.006
f 1/1/1 2/2/1 3/3/1
f 4/4/2 5/5/2 6/6/2
s 1
f 7/7/3 8/8/3 9/9/1
f 10/10/1 7/7/3 9/9/1
f 10/10/1 9/9/1 11/11/4
f 12/12/4 10/10/1 11/11/4
f 13/11/4 14/12/4 15/13/5
f 16/14/5 13/11/4 15/13/5
s 0
f 17/15/6 18/16/6 19/13/6
f 20/14/6 17/15/6 19/13/6
f 21/17/7 22/18/7 23/19/7
f 24/20/7 21/17/7 23/19/7
s 1
f 25/21/8 26/22/8 27/13/3
f 28/14/3 25/21/8 27/13/3
s 0
f 29/23/9 30/24/9 31/25/9
f 29/23/9 31/25/9 32/26/9
f 33/27/9 29/23/9 32/26/9
f 32/26/9 34/28/9 33/27/9
f 34/28/9 35/29/9 33/27/9
f 36/30/9 33/27/9 35/29/9
f 37/31/10 38/32/10 39/33/10
f 38/32/10 40/34/10 39/33/10
f 39/33/10 40/34/10 41/35/10
f 39/33/10 41/35/10 42/36/10
f 41/35/10 43/37/10 42/36/10
f 44/38/11 45/39/11 46/40/11
f 47/41/11 44/38/11 46/40/11
f 48/24/9 49/42/9 50/37/9
f 51/25/9 48/24/9 50/37/9
f 52/43/2 53/44/2 54/45/2
f 55/46/2 52/43/2 54/45/2
f 56/29/10 57/47/10 58/48/10
f 57/47/10 59/49/10 58/48/10
f 60/50/10 59/49/10 57/47/10
f 61/51/10 58/48/10 59/49/10
f 62/31/10 61/51/10 59/49/10
f 63/52/9 64/53/9 65/54/9
f 65/54/9 64/53/9 66/55/9
f 67/56/9 65/54/9 66/55/9
f 68/57/9 69/58/9 70/59/9
f 69/58/9 71/60/9 70/59/9
f 71/60/9 72/61/9 70/59/9
f 73/5/2 74/4/2 75/6/2
f 75/6/2 74/4/2 76/4/2
f 77/6/2 75/6/2 76/4/2
f 76/4/2 74/4/2 78/62/2
f 74/4/2 79/62/2 78/62/2
f 80/63/12 81/64/12 82/65/12
f 83/66/12 80/63/12 82/65/12
f 84/67/13 85/68/13 86/69/13
f 87/70/13 84/67/13 86/69/13
f 88/70/14 89/69/14 90/71/14
f 91/72/14 88/70/14 90/71/14
f 92/65/15 93/73/15 94/74/15
f 95/64/15 92/65/15 94/74/15
f 96/75/16 97/72/16 98/76/16
f 99/77/16 96/75/16 98/76/16
f 100/77/17 101/76/17 102/67/17
f 103/78/17 100/77/17 102/67/17
f 104/79/2 105/80/2 106/81/2
f 104/79/2 106/81/2 107/82/2
f 106/81/2 108/83/2 107/82/2
f 106/81/2 109/84/2 108/83/2
f 110/85/18 111/86/18 112/87/18
f 113/88/18 110/85/18 112/87/18
f 114/88/19 115/87/19 116/89/19
f 117/90/20 114/88/20 116/89/20
f 118/91/21 119/92/21 120/93/21
f 121/94/21 118/91/21 120/93/21
f 122/89/22 123/90/22 124/95/22
f 125/96/22 122/89/22 124/95/22
f 126/96/23 127/95/23 128/85/23
f 129/86/23 126/96/23 128/85/23
f 130/97/24 131/94/24 132/91/24
f 133/98/24 130/97/24 132/91/24
f 134/99/2 135/100/2 136/101/2
f 134/99/2 136/101/2 137/102/2
f 136/101/2 138/103/2 137/102/2
f 136/101/2 139/104/2 138/103/2
f 140/105/6 141/106/6 142/106/6
f 143/105/6 140/105/6 142/106/6
s 1
f 144/8/3 145/7/3 146/9/1
f 145/7/3 147/10/1 146/9/1
f 146/9/1 147/10/1 148/11/4
f 147/10/1 149/12/4 148/11/4
f 150/11/4 151/14/5 152/13/5
f 153/12/4 150/11/4 152/13/5
s 0
f 154/15/6 155/14/6 156/13/6
f 157/16/6 154/15/6 156/13/6
f 158/17/7 159/20/7 160/19/7
f 161/18/7 158/17/7 160/19/7
s 1
f 162/21/8 163/14/3 164/13/3
f 165/22/8 162/21/8 164/13/3
s 0
f 166/25/10 167/24/10 168/23/10
f 169/26/10 166/25/10 168/23/10
f 170/27/10 169/26/10 168/23/10
f 169/26/10 170/27/10 171/28/10
f 170/27/10 172/29/10 171/28/10
f 170/27/10 173/30/10 172/29/10
f 174/32/9 175/31/9 176/33/9
f 177/34/9 174/32/9 176/33/9
f 177/34/9 176/33/9 178/35/9
f 178/35/9 176/33/9 179/36/9
f 180/37/9 178/35/9 179/36/9
f 181/38/11 182/41/11 183/40/11
f 184/39/11 181/38/11 183/40/11
f 185/24/10 186/25/10 187/37/10
f 188/42/10 185/24/10 187/37/10
f 189/43/2 190/46/2 191/45/2
f 192/44/2 189/43/2 191/45/2
f 193/49/9 194/50/9 195/47/9
f 193/49/9 195/47/9 196/48/9
f 195/47/9 197/29/9 196/48/9
f 193/49/9 196/48/9 198/51/9
f 199/31/9 193/49/9 198/51/9
f 200/3/1 201/2/1 202/1/1
f 200/3/1 202/1/1 203/3/1
f 202/1/1 204/1/1 203/3/1
f 200/3/1 203/3/1 205/107/1
f 206/107/1 200/3/1 205/107/1
f 207/53/10 208/52/10 209/54/10
f 207/53/10 209/54/10 210/55/10
f 209/54/10 211/56/10 210/55/10
f 212/57/10 213/59/10 214/58/10
f 213/59/10 215/60/10 214/58/10
f 213/59/10 216/61/10 215/60/10
f 217/63/25 218/66/25 219/65/25
f 220/64/25 217/63/25 219/65/25
f 221/67/26 222/70/26 223/69/26
f 224/68/26 221/67/26 223/69/26
f 225/70/27 226/72/27 227/71/27
f 228/69/27 225/70/27 227/71/27
f 229/65/28 230/64/28 231/74/28
f 232/73/28 229/65/28 231/74/28
f 233/75/29 234/77/29 235/76/29
f 236/72/29 233/75/29 235/76/29
f 237/77/30 238/78/30 239/67/30
f 240/76/30 237/77/30 239/67/30
f 241/81/2 242/80/2 243/79/2
f 243/79/2 244/82/2 241/81/2
f 244/82/2 245/83/2 241/81/2
f 245/83/2 246/84/2 241/81/2
f 247/85/31 248/88/31 249/87/31
f 250/86/31 247/85/31 249/87/31
f 251/88/32 252/90/32 253/89/32
f 254/87/32 251/88/32 253/89/32
f 255/91/33 256/94/33 257/93/33
f 258/92/33 255/91/33 257/93/33
f 259/89/34 260/96/34 261/95/34
f 262/90/34 259/89/34 261/95/34
f 263/96/35 264/86/35 265/85/35
f 266/95/36 263/96/36 265/85/36
f 267/97/37 268/98/37 269/91/37
f 270/94/37 267/97/37 269/91/37
f 271/101/2 272/100/2 273/99/2
f 273/99/2 274/102/2 271/101/2
f 274/102/2 275/103/2 271/101/2
f 275/103/2 276/104/2 271/101/2
f 277/108/38 278/108/38 279/62/38
f 280/62/38 277/108/38 279/62/38
o SubMesh_1.003
v 0.030123 0.207284 -0.218508
v 0.040426 0.207284 -0.208478
v 0.040426 -0.207284 -0.208478
v 0.030123 -0.207284 -0.218508
v 0.000000 0.207284 -0.218508
v 0.030123 0.207284 -0.218508
v 0.030123 -0.207284 -0.218508
v 0.000000 -0.207284 -0.218508
v 0.040426 0.207284 -0.208478
v 0.040426 0.207284 -0.178162
v 0.040426 -0.207284 -0.178162
v 0.040426 -0.207284 -0.208478
v 0.000000 0.207284 -0.178162
v 0.000000 0.207284 -0.218508
v 0.000000 -0.207284 -0.218508
v 0.000000 -0.207284 -0.178162
vn 0.6975 -0.0000 -0.7166
vn -0.0000 -0.0000 -1.0000
vn 1.0000 -0.0000 -0.0000
vn -1.0000 -0.0000 -0.0000
vt 0.211766 0.504565
vt 0.211535 0.504565
vt 0.211535 0.495435
vt 0.211766 0.495435
vt 0.212442 0.504565
vt 0.212442 0.495435
vt 0.210855 0.504565
vt 0.210855 0.495435
vt 0.213346 0.504565
vt 0.213346 0.495435
s 0
usemtl DefaultMaterial.006
f 281/109/39 282/110/39 283/111/39
f 284/112/39 281/109/39 283/111/39
f 285/113/40 286/109/40 287/112/40
f 288/114/40 285/113/40 287/112/40
f 289/110/41 290/115/41 291/116/41
f 292/111/41 289/110/41 291/116/41
f 293/117/42 294/113/42 295/114/42
f 296/118/42 293/117/42 295/114/42
