# Blender 4.3.0
# www.blender.org
mtllib Open1.mtl
o SubMesh_0.005
v 0.040426 0.207284 0.115802
v 0.050430 0.207284 0.109422
v 0.050430 0.207284 -0.008440
v 0.040426 0.207284 0.115802
v 0.040426 0.207284 0.178162
v 0.040426 0.158465 0.115802
v 0.000000 -0.207284 0.178162
v 0.000000 -0.158465 0.024087
v 0.000000 -0.207284 0.024087
v -0.017032 0.158465 0.017032
v -0.017032 0.207284 0.017032
v -0.024087 0.158465 0.000000
v -0.024087 0.207284 0.000000
v -0.017032 0.158465 -0.017032
v -0.017032 0.207284 -0.017032
v -0.017032 0.207284 -0.017032
v 0.000000 0.207284 -0.024087
v 0.000000 0.158465 -0.024087
v -0.017032 0.158465 -0.017032
v 0.000000 0.207284 -0.024087
v 0.040426 0.207284 -0.024087
v 0.040426 0.158465 -0.024087
v 0.000000 0.158465 -0.024087
v 0.050430 0.207284 0.109422
v 0.040426 0.207284 0.115802
v 0.040426 0.158465 0.115802
v 0.050430 0.158465 0.109422
v 0.000000 0.207284 0.024087
v -0.017032 0.207284 0.017032
v -0.017032 0.158465 0.017032
v 0.000000 0.158465 0.024087
v 0.040426 0.207284 0.024087
v 0.040426 0.207284 0.115802
v 0.050430 0.207284 -0.008440
v 0.040426 0.207284 -0.024087
v 0.000000 0.207284 0.024087
v 0.000000 0.207284 -0.024087
v -0.017032 0.207284 0.017032
v -0.024087 0.207284 0.000000
v -0.017032 0.207284 -0.017032
v 0.000000 0.158465 0.000000
v 0.040426 0.158465 -0.024087
v 0.050430 0.158465 -0.008440
v 0.031172 0.158465 0.000000
v 0.040426 0.158465 0.009254
v 0.050430 0.158465 0.109422
v 0.040426 0.158465 0.115802
v 0.040426 0.207284 -0.024087
v 0.050430 0.207284 -0.008440
v 0.050430 0.158465 -0.008440
v 0.040426 0.158465 -0.024087
v 0.050430 0.158465 -0.008440
v 0.050430 0.207284 -0.008440
v 0.050430 0.207284 0.109422
v 0.050430 0.158465 0.109422
v 0.000000 0.158465 0.000000
v 0.000000 0.158465 0.024087
v -0.017032 0.158465 0.017032
v -0.017032 0.158465 -0.017032
v -0.024087 0.158465 0.000000
v 0.000000 0.158465 -0.024087
v 0.040426 0.158465 -0.024087
v 0.040426 0.207284 0.024087
v 0.000000 0.207284 0.024087
v 0.040426 0.207284 0.115802
v 0.040426 0.207284 0.178162
v 0.000000 0.207284 0.178162
v 0.000000 0.207284 0.218508
v 0.030123 0.207284 0.218508
v 0.000000 0.207284 0.178162
v 0.040426 0.207284 0.178162
v 0.040426 0.207284 0.208478
v 0.050430 0.172218 0.030353
v 0.050430 0.175350 0.019856
v 0.057950 0.175350 0.019856
v 0.057950 0.172218 0.030353
v 0.050430 0.175350 0.019856
v 0.050430 0.186006 0.017319
v 0.057950 0.186006 0.017319
v 0.057950 0.175350 0.019856
v 0.050430 0.186006 0.017319
v 0.050430 0.193532 0.025280
v 0.057950 0.193532 0.025280
v 0.057950 0.186006 0.017319
v 0.050430 0.193532 0.025280
v 0.050430 0.190400 0.035778
v 0.057950 0.190400 0.035777
v 0.057950 0.193532 0.025280
v 0.050430 0.190400 0.035778
v 0.050430 0.179743 0.038314
v 0.057950 0.179743 0.038314
v 0.057950 0.190400 0.035777
v 0.050430 0.179743 0.038314
v 0.050430 0.172218 0.030353
v 0.057950 0.172218 0.030353
v 0.057950 0.179743 0.038314
v 0.057950 0.186006 0.017319
v 0.057950 0.193532 0.025280
v 0.057950 0.190400 0.035777
v 0.057950 0.179743 0.038314
v 0.057950 0.172218 0.030353
v 0.057950 0.175350 0.019856
v 0.050430 0.192039 0.077124
v 0.050430 0.182259 0.082060
v 0.057950 0.182259 0.082060
v 0.057950 0.192039 0.077124
v 0.050430 0.182259 0.082060
v 0.050430 0.173095 0.076058
v 0.057950 0.173095 0.076058
v 0.057950 0.182259 0.082060
v 0.050430 0.173095 0.076058
v 0.050430 0.173710 0.065121
v 0.057950 0.173710 0.065121
v 0.057950 0.173095 0.076058
v 0.050430 0.173710 0.065121
v 0.050430 0.183490 0.060185
v 0.057950 0.183490 0.060185
v 0.057950 0.173710 0.065121
v 0.050430 0.183490 0.060185
v 0.050430 0.192654 0.066187
v 0.057950 0.192654 0.066187
v 0.057950 0.183490 0.060185
v 0.050430 0.192654 0.066187
v 0.050430 0.192039 0.077124
v 0.057950 0.192039 0.077124
v 0.057950 0.192654 0.066187
v 0.057950 0.173095 0.076058
v 0.057950 0.173710 0.065121
v 0.057950 0.183490 0.060185
v 0.057950 0.192654 0.066187
v 0.057950 0.192039 0.077124
v 0.057950 0.182259 0.082060
v 0.040426 0.158465 0.009254
v 0.040426 0.158465 0.115802
v 0.040426 -0.158465 0.009254
v 0.040426 -0.158465 0.115802
v 0.040426 0.207284 0.178162
v 0.040426 -0.207284 0.178162
v 0.040426 -0.207285 0.115802
v 0.031172 0.158465 0.000000
v 0.031172 -0.158465 0.000000
v 0.000000 -0.158465 0.000000
v 0.000000 0.158465 0.000000
v -0.017032 -0.207284 0.017032
v -0.017032 -0.158465 0.017032
v -0.024087 -0.158465 0.000000
v -0.024087 -0.207284 0.000000
v -0.017032 -0.158465 -0.017032
v -0.017032 -0.207284 -0.017032
v -0.017032 -0.207284 -0.017032
v -0.017032 -0.158465 -0.017032
v 0.000000 -0.158465 -0.024087
v 0.000000 -0.207284 -0.024087
v 0.000000 -0.207284 -0.024087
v 0.000000 -0.158465 -0.024087
v 0.040426 -0.158465 -0.024087
v 0.040426 -0.207284 -0.024087
v 0.050430 -0.207284 0.109422
v 0.050430 -0.158465 0.109422
v 0.040426 -0.158465 0.115802
v 0.040426 -0.207285 0.115802
v 0.000000 -0.207284 0.024087
v 0.000000 -0.158465 0.024087
v -0.017032 -0.158465 0.017032
v -0.017032 -0.207284 0.017032
v 0.040426 -0.207284 -0.024087
v 0.050430 -0.207284 -0.008440
v 0.040426 -0.207284 0.024087
v 0.000000 -0.207284 0.024087
v 0.000000 -0.207284 -0.024087
v -0.017032 -0.207284 0.017032
v -0.024087 -0.207284 0.000000
v -0.017032 -0.207284 -0.017032
v 0.040426 -0.158465 -0.024087
v 0.000000 -0.158465 0.000000
v 0.050430 -0.158465 -0.008440
v 0.031172 -0.158465 0.000000
v 0.040426 -0.158465 0.009254
v 0.050430 -0.158465 0.109422
v 0.040426 -0.158465 0.115802
v 0.040426 -0.207284 -0.024087
v 0.040426 -0.158465 -0.024087
v 0.050430 -0.158465 -0.008440
v 0.050430 -0.207284 -0.008440
v 0.050430 -0.207284 -0.008440
v 0.050430 -0.207284 0.109422
v 0.040426 -0.207285 0.115802
v 0.040426 -0.207284 0.024087
v 0.050430 -0.158465 -0.008440
v 0.050430 -0.158465 0.109422
v 0.050430 -0.207284 0.109422
v 0.050430 -0.207284 -0.008440
v -0.024087 -0.158465 0.000000
v -0.017032 -0.158465 0.017032
v -0.017032 -0.158465 -0.017032
v 0.000000 -0.158465 0.000000
v 0.000000 -0.158465 0.024087
v 0.000000 -0.158465 -0.024087
v 0.040426 -0.158465 -0.024087
v 0.000000 -0.207284 0.178162
v 0.000000 0.207284 0.178162
v 0.000000 -0.158465 0.024087
v 0.000000 0.158465 0.024087
v 0.000000 0.207284 0.024087
v 0.000000 0.158465 0.000000
v 0.000000 -0.158465 0.000000
v 0.040426 -0.207284 0.024087
v 0.040426 -0.207285 0.115802
v 0.000000 -0.207284 0.024087
v 0.040426 -0.207284 0.178162
v 0.000000 -0.207284 0.178162
v 0.000000 -0.207284 0.218508
v 0.000000 -0.207284 0.178162
v 0.030123 -0.207284 0.218508
v 0.040426 -0.207284 0.178162
v 0.040426 -0.207284 0.208478
v 0.050430 -0.172218 0.030353
v 0.057950 -0.172218 0.030353
v 0.057950 -0.175350 0.019856
v 0.050430 -0.175350 0.019856
v 0.050430 -0.175350 0.019856
v 0.057950 -0.175350 0.019856
v 0.057950 -0.186006 0.017319
v 0.050430 -0.186006 0.017319
v 0.050430 -0.186006 0.017319
v 0.057950 -0.186006 0.017319
v 0.057950 -0.193532 0.025280
v 0.050430 -0.193532 0.025280
v 0.050430 -0.193532 0.025280
v 0.057950 -0.193532 0.025280
v 0.057950 -0.190400 0.035777
v 0.050430 -0.190400 0.035778
v 0.050430 -0.190400 0.035778
v 0.057950 -0.190400 0.035777
v 0.057950 -0.179743 0.038314
v 0.050430 -0.179743 0.038314
v 0.050430 -0.179743 0.038314
v 0.057950 -0.179743 0.038314
v 0.057950 -0.172218 0.030353
v 0.050430 -0.172218 0.030353
v 0.057950 -0.190400 0.035777
v 0.057950 -0.193532 0.025280
v 0.057950 -0.186006 0.017319
v 0.057950 -0.179743 0.038314
v 0.057950 -0.172218 0.030353
v 0.057950 -0.175350 0.019856
v 0.050430 -0.192039 0.077124
v 0.057950 -0.192039 0.077124
v 0.057950 -0.182260 0.082060
v 0.050430 -0.182260 0.082060
v 0.050430 -0.182260 0.082060
v 0.057950 -0.182260 0.082060
v 0.057950 -0.173095 0.076058
v 0.050430 -0.173095 0.076058
v 0.050430 -0.173095 0.076058
v 0.057950 -0.173095 0.076058
v 0.057950 -0.173710 0.065121
v 0.050430 -0.173710 0.065121
v 0.050430 -0.173710 0.065121
v 0.057950 -0.173710 0.065121
v 0.057950 -0.183490 0.060185
v 0.050430 -0.183490 0.060185
v 0.050430 -0.183490 0.060185
v 0.057950 -0.183490 0.060185
v 0.057950 -0.192654 0.066187
v 0.050430 -0.192654 0.066187
v 0.050430 -0.192654 0.066187
v 0.057950 -0.192654 0.066187
v 0.057950 -0.192039 0.077124
v 0.050430 -0.192039 0.077124
v 0.057950 -0.183490 0.060185
v 0.057950 -0.173710 0.065121
v 0.057950 -0.173095 0.076058
v 0.057950 -0.192654 0.066187
v 0.057950 -0.192039 0.077124
v 0.057950 -0.182260 0.082060
v 0.031172 0.158465 0.000000
v 0.040426 0.158465 0.009254
v 0.040426 -0.158465 0.009254
v 0.031172 -0.158465 0.000000
vn -0.0000 1.0000 -0.0000
vn 1.0000 -0.0000 -0.0000
vn -1.0000 -0.0000 -0.0000
vn -0.7071 -0.0000 0.7071
vn -0.7071 -0.0000 -0.7071
vn -0.3827 -0.0000 -0.9239
vn -0.0000 -0.0000 -1.0000
vn 0.5377 -0.0000 0.8431
vn -0.3827 -0.0000 0.9239
vn -0.0000 -1.0000 -0.0000
vn 0.8425 -0.0000 -0.5387
vn -0.0000 -0.9583 -0.2859
vn -0.0000 -0.2316 -0.9728
vn -0.0000 0.7267 -0.6869
vn -0.0000 0.9583 0.2859
vn -0.0000 0.2316 0.9728
vn -0.0000 -0.7267 0.6869
vn -0.0000 0.4506 0.8927
vn -0.0000 -0.5479 0.8366
vn -0.0000 -0.9984 -0.0562
vn -0.0000 -0.4506 -0.8927
vn -0.0000 0.5479 -0.8366
vn -0.0000 0.9984 0.0562
vn -0.0000 0.9583 -0.2859
vn -0.0000 0.2316 -0.9728
vn -0.0000 -0.7267 -0.6869
vn -0.0000 -0.9583 0.2859
vn -0.0000 -0.2316 0.9728
vn -0.0000 0.7267 0.6869
vn -0.0000 -0.4506 0.8927
vn -0.0000 0.5478 0.8366
vn -0.0000 0.5479 0.8366
vn -0.0000 0.9984 -0.0562
vn -0.0000 0.4506 -0.8927
vn -0.0000 -0.5478 -0.8366
vn -0.0000 -0.5479 -0.8366
vn -0.0000 -0.9984 0.0562
vn 0.7071 -0.0000 -0.7071
vt 0.151413 0.378262
vt 0.148016 0.380429
vt 0.148016 0.413882
vt 0.346498 0.272078
vt 0.349233 0.272078
vt 0.346498 0.273505
vt 0.281659 0.410413
vt 0.276449 0.409490
vt 0.276449 0.410413
vt 0.165798 0.387700
vt 0.165798 0.423274
vt 0.153388 0.387700
vt 0.153388 0.423274
vt 0.140977 0.387700
vt 0.140977 0.423274
vt 0.159593 0.387700
vt 0.159593 0.423274
vt 0.147182 0.387700
vt 0.147182 0.423274
vt 0.467979 0.270804
vt 0.470323 0.270804
vt 0.470323 0.288739
vt 0.467979 0.288739
vt 0.147182 0.387700
vt 0.147182 0.423274
vt 0.151413 0.407004
vt 0.156961 0.417587
vt 0.165141 0.408206
vt 0.162249 0.424569
vt 0.170924 0.411803
vt 0.173320 0.417587
vt 0.170924 0.423371
vt 0.165141 0.407004
vt 0.156961 0.417587
vt 0.148865 0.412162
vt 0.154555 0.407004
vt 0.151413 0.404708
vt 0.148016 0.380429
vt 0.327287 0.267721
vt 0.340382 0.267721
vt 0.340382 0.291988
vt 0.327287 0.291988
vt 0.328069 0.289767
vt 0.328069 0.271832
vt 0.364260 0.271832
vt 0.364260 0.289767
vt 0.162914 0.411634
vt 0.165141 0.409408
vt 0.170924 0.411803
vt 0.170924 0.423371
vt 0.162249 0.424569
vt 0.094282 0.405097
vt 0.095464 0.405097
vt 0.094282 0.402622
vt 0.094282 0.399887
vt 0.095464 0.399887
vt 0.156923 0.398354
vt 0.156042 0.398354
vt 0.156923 0.399534
vt 0.155741 0.399534
vt 0.155741 0.398647
vt 0.097218 0.454860
vt 0.097218 0.462509
vt 0.091738 0.462509
vt 0.091738 0.454860
vt 0.091738 0.465309
vt 0.091738 0.457543
vt 0.097218 0.457543
vt 0.097218 0.465309
vt 0.091738 0.452060
vt 0.097218 0.452060
vt 0.097218 0.454860
vt 0.097218 0.462509
vt 0.097218 0.452060
vt 0.097218 0.459825
vt 0.091738 0.459825
vt 0.097218 0.465309
vt 0.027204 0.460325
vt 0.033005 0.454842
vt 0.040654 0.457124
vt 0.042503 0.464889
vt 0.036702 0.470372
vt 0.029053 0.468090
vt 0.097218 0.451782
vt 0.097218 0.458909
vt 0.091738 0.458909
vt 0.091738 0.451782
vt 0.097218 0.465586
vt 0.091738 0.465586
vt 0.097218 0.454700
vt 0.097218 0.462669
vt 0.091738 0.462669
vt 0.091738 0.454700
vt 0.091738 0.458460
vt 0.097218 0.458460
vt 0.091738 0.462669
vt 0.091738 0.454700
vt 0.041980 0.459010
vt 0.041531 0.466980
vt 0.034405 0.470577
vt 0.027728 0.466204
vt 0.028176 0.458234
vt 0.035302 0.454637
vt 0.344221 0.273505
vt 0.157237 0.395408
vt 0.156326 0.395408
vt 0.276449 0.408986
vt 0.344023 0.273505
s 0
usemtl DefaultMaterial.005
f 1/1/1 2/2/1 3/3/1
f 4/4/2 5/5/2 6/6/2
f 7/7/3 8/8/3 9/9/3
s 1
f 10/10/4 11/11/4 12/12/3
f 11/11/4 13/13/3 12/12/3
f 12/12/3 13/13/3 14/14/5
f 13/13/3 15/15/5 14/14/5
f 16/14/5 17/16/6 18/17/6
f 19/15/5 16/14/5 18/17/6
s 0
f 20/18/7 21/16/7 22/17/7
f 23/19/7 20/18/7 22/17/7
f 24/20/8 25/21/8 26/22/8
f 27/23/8 24/20/8 26/22/8
s 1
f 28/24/9 29/16/4 30/17/4
f 31/25/9 28/24/9 30/17/4
s 0
f 32/26/1 33/1/1 34/3/1
f 35/27/1 32/26/1 34/3/1
f 36/28/1 32/26/1 35/27/1
f 37/29/1 36/28/1 35/27/1
f 36/28/1 37/29/1 38/30/1
f 37/29/1 39/31/1 38/30/1
f 37/29/1 40/32/1 39/31/1
f 41/33/10 42/34/10 43/35/10
f 44/36/10 41/33/10 43/35/10
f 44/36/10 43/35/10 45/37/10
f 45/37/10 43/35/10 46/38/10
f 47/1/10 45/37/10 46/38/10
f 48/39/11 49/40/11 50/41/11
f 51/42/11 48/39/11 50/41/11
f 52/43/2 53/44/2 54/45/2
f 55/46/2 52/43/2 54/45/2
f 56/47/10 57/48/10 58/49/10
f 56/47/10 58/49/10 59/50/10
f 58/49/10 60/31/10 59/50/10
f 56/47/10 59/50/10 61/51/10
f 62/34/10 56/47/10 61/51/10
f 63/52/1 64/53/1 65/54/1
f 64/53/1 66/55/1 65/54/1
f 64/53/1 67/56/1 66/55/1
f 68/57/1 69/58/1 70/59/1
f 69/58/1 71/60/1 70/59/1
f 69/58/1 72/61/1 71/60/1
f 73/62/12 74/63/12 75/64/12
f 76/65/12 73/62/12 75/64/12
f 77/66/13 78/67/13 79/68/13
f 80/69/13 77/66/13 79/68/13
f 81/67/14 82/70/14 83/71/14
f 84/68/14 81/67/14 83/71/14
f 85/64/15 86/65/15 87/72/15
f 88/73/15 85/64/15 87/72/15
f 89/74/16 90/75/16 91/76/16
f 92/70/16 89/74/16 91/76/16
s 1
f 93/75/17 94/77/17 95/66/17
s 0
f 96/76/17 93/75/17 95/66/17
f 97/78/2 98/79/2 99/80/2
f 99/80/2 100/81/2 97/78/2
f 100/81/2 101/82/2 97/78/2
f 101/82/2 102/83/2 97/78/2
f 103/84/18 104/85/18 105/86/18
f 106/87/18 103/84/18 105/86/18
f 107/85/19 108/88/19 109/89/19
f 110/86/19 107/85/19 109/89/19
f 111/90/20 112/91/20 113/92/20
f 114/93/20 111/90/20 113/92/20
f 115/89/21 116/94/21 117/95/21
f 118/88/21 115/89/21 117/95/21
f 119/94/22 120/87/22 121/84/22
f 122/95/22 119/94/22 121/84/22
f 123/96/23 124/97/23 125/90/23
f 126/91/23 123/96/23 125/90/23
f 127/98/2 128/99/2 129/100/2
f 129/100/2 130/101/2 127/98/2
f 130/101/2 131/102/2 127/98/2
f 131/102/2 132/103/2 127/98/2
f 133/104/2 134/6/2 135/104/2
f 134/6/2 136/6/2 135/104/2
f 134/6/2 137/5/2 136/6/2
f 137/5/2 138/5/2 136/6/2
f 138/5/2 139/4/2 136/6/2
f 140/105/7 141/105/7 142/106/7
f 143/106/7 140/105/7 142/106/7
s 1
f 144/11/4 145/10/4 146/12/3
f 147/13/3 144/11/4 146/12/3
f 147/13/3 146/12/3 148/14/5
f 149/15/5 147/13/3 148/14/5
f 150/14/5 151/15/5 152/17/6
f 153/16/6 150/14/5 152/17/6
s 0
f 154/18/7 155/19/7 156/17/7
f 157/16/7 154/18/7 156/17/7
f 158/20/8 159/23/8 160/22/8
f 161/21/8 158/20/8 160/22/8
s 1
f 162/24/9 163/25/9 164/17/4
f 165/16/4 162/24/9 164/17/4
s 0
f 166/27/10 167/3/10 168/26/10
f 166/27/10 168/26/10 169/28/10
f 170/29/10 166/27/10 169/28/10
f 169/28/10 171/30/10 170/29/10
f 171/30/10 172/31/10 170/29/10
f 173/32/10 170/29/10 172/31/10
f 174/34/1 175/33/1 176/35/1
f 175/33/1 177/36/1 176/35/1
f 176/35/1 177/36/1 178/37/1
f 176/35/1 178/37/1 179/38/1
f 178/37/1 180/1/1 179/38/1
f 181/39/11 182/42/11 183/41/11
f 184/40/11 181/39/11 183/41/11
f 185/3/10 186/2/10 187/1/10
f 188/26/10 185/3/10 187/1/10
f 189/43/2 190/46/2 191/45/2
f 192/44/2 189/43/2 191/45/2
f 193/31/1 194/49/1 195/50/1
f 194/49/1 196/47/1 195/50/1
f 197/48/1 196/47/1 194/49/1
f 198/51/1 195/50/1 196/47/1
f 199/34/1 198/51/1 196/47/1
f 200/7/3 201/7/3 202/8/3
f 201/7/3 203/8/3 202/8/3
f 204/9/3 203/8/3 201/7/3
f 202/8/3 203/8/3 205/107/3
f 206/107/3 202/8/3 205/107/3
f 207/52/10 208/54/10 209/53/10
f 209/53/10 208/54/10 210/55/10
f 211/56/10 209/53/10 210/55/10
f 212/57/10 213/59/10 214/58/10
f 213/59/10 215/60/10 214/58/10
f 215/60/10 216/61/10 214/58/10
f 217/62/24 218/65/24 219/64/24
f 220/63/24 217/62/24 219/64/24
f 221/66/25 222/69/25 223/68/25
f 224/67/25 221/66/25 223/68/25
f 225/67/26 226/68/26 227/71/26
f 228/70/26 225/67/26 227/71/26
f 229/64/27 230/73/27 231/72/27
f 232/65/27 229/64/27 231/72/27
f 233/74/28 234/70/28 235/76/28
f 236/75/28 233/74/28 235/76/28
f 237/75/29 238/76/29 239/66/29
s 1
f 240/77/29 237/75/29 239/66/29
s 0
f 241/80/2 242/79/2 243/78/2
f 241/80/2 243/78/2 244/81/2
f 243/78/2 245/82/2 244/81/2
f 243/78/2 246/83/2 245/82/2
f 247/84/30 248/87/30 249/86/30
f 250/85/30 247/84/30 249/86/30
f 251/85/31 252/86/31 253/89/31
f 254/88/32 251/85/32 253/89/32
f 255/90/33 256/93/33 257/92/33
f 258/91/33 255/90/33 257/92/33
f 259/89/34 260/88/34 261/95/34
f 262/94/34 259/89/34 261/95/34
f 263/94/35 264/95/35 265/84/35
f 266/87/36 263/94/36 265/84/36
f 267/96/37 268/91/37 269/90/37
f 270/97/37 267/96/37 269/90/37
f 271/100/2 272/99/2 273/98/2
f 271/100/2 273/98/2 274/101/2
f 273/98/2 275/102/2 274/101/2
f 273/98/2 276/103/2 275/102/2
f 277/108/38 278/104/38 279/104/38
f 280/108/38 277/108/38 279/104/38
o SubMesh_1.002
v 0.030123 0.207284 0.218508
v 0.030123 -0.207284 0.218508
v 0.040426 -0.207284 0.208478
v 0.040426 0.207284 0.208478
v 0.000000 0.207284 0.218508
v 0.000000 -0.207284 0.218508
v 0.030123 -0.207284 0.218508
v 0.030123 0.207284 0.218508
v 0.040426 0.207284 0.208478
v 0.040426 -0.207284 0.208478
v 0.040426 -0.207284 0.178162
v 0.040426 0.207284 0.178162
v 0.000000 0.207284 0.178162
v 0.000000 -0.207284 0.178162
v 0.000000 -0.207284 0.218508
v 0.000000 0.207284 0.218508
vn 0.6975 -0.0000 0.7166
vn -0.0000 -0.0000 1.0000
vn 1.0000 -0.0000 -0.0000
vn -1.0000 -0.0000 -0.0000
vt 0.211766 0.504565
vt 0.211766 0.495435
vt 0.211535 0.495435
vt 0.211535 0.504565
vt 0.212442 0.504565
vt 0.212442 0.495435
vt 0.210855 0.495435
vt 0.210855 0.504565
vt 0.213346 0.504565
vt 0.213346 0.495435
s 0
usemtl DefaultMaterial.005
f 281/109/39 282/110/39 283/111/39
f 284/112/39 281/109/39 283/111/39
f 285/113/40 286/114/40 287/110/40
f 288/109/40 285/113/40 287/110/40
f 289/112/41 290/111/41 291/115/41
f 292/116/41 289/112/41 291/115/41
f 293/117/42 294/118/42 295/114/42
f 296/113/42 293/117/42 295/114/42
