# Blender 4.3.0
# www.blender.org
mtllib SlidingPanel.mtl
o Slide
v -0.063094 0.026337 0.004377
v -0.100081 -0.000649 0.004377
v -0.063094 -0.027634 0.004377
v -0.116051 0.026337 0.004377
v -0.153037 -0.000649 0.004377
v -0.116051 -0.027634 0.004377
v -0.169796 0.026337 0.004377
v -0.206782 -0.000649 0.004377
v -0.169796 -0.027634 0.004377
v 0.017743 0.081118 0.003827
v -0.280779 0.081118 0.003827
v -0.280779 -0.081117 0.003827
v 0.017743 -0.081118 0.003827
v 0.017743 -0.081118 0.003827
v 0.028439 -0.070421 0.003827
v 0.028439 0.070421 0.003827
v 0.017743 0.081118 0.003827
v -0.280779 0.081118 0.003827
v -0.291476 0.070421 0.003827
v -0.291476 -0.070421 0.003827
v -0.280779 -0.081117 0.003827
v -0.280779 -0.081117 -0.003827
v 0.017743 -0.081118 -0.003827
v 0.017743 -0.081118 0.003827
v -0.280779 -0.081117 0.003827
v 0.028439 -0.070421 -0.003827
v 0.028439 0.070421 -0.003827
v 0.028439 0.070421 0.003827
v 0.028439 -0.070421 0.003827
v 0.017743 0.081118 -0.003827
v -0.280779 0.081118 -0.003827
v -0.280779 0.081118 0.003827
v 0.017743 0.081118 0.003827
v -0.291476 0.070421 -0.003827
v -0.291476 -0.070421 -0.003827
v -0.291476 -0.070421 0.003827
v -0.291476 0.070421 0.003827
v -0.291476 -0.070421 -0.003827
v -0.280779 -0.081117 -0.003827
v -0.280779 -0.081117 0.003827
v -0.291476 -0.070421 0.003827
v 0.017743 -0.081118 -0.003827
v 0.028439 -0.070421 -0.003827
v 0.028439 -0.070421 0.003827
v 0.017743 -0.081118 0.003827
v -0.280779 0.081118 -0.003827
v -0.291476 0.070421 -0.003827
v -0.291476 0.070421 0.003827
v -0.280779 0.081118 0.003827
v 0.028439 0.070421 -0.003827
v 0.017743 0.081118 -0.003827
v 0.017743 0.081118 0.003827
v 0.028439 0.070421 0.003827
v 0.008333 0.067777 0.016426
v -0.008546 0.067777 0.016426
v -0.008546 -0.069074 0.016426
v 0.008333 -0.069074 0.016426
v -0.008546 0.067777 0.016426
v -0.008546 0.067777 0.001004
v -0.008546 -0.069074 0.001004
v -0.008546 -0.069074 0.016426
v 0.008333 0.067777 0.001004
v 0.008333 0.067777 0.016426
v 0.008333 -0.069074 0.016426
v 0.008333 -0.069074 0.001004
v 0.008333 0.067777 0.016426
v 0.008333 0.067777 0.001004
v -0.008546 0.067777 0.001004
v -0.008546 0.067777 0.016426
v -0.008546 -0.069074 0.016426
v -0.008546 -0.069074 0.001004
v 0.008333 -0.069074 0.001004
v 0.008333 -0.069074 0.016426
vn -0.0000 -0.0000 1.0000
vn -0.0000 -1.0000 -0.0000
vn 1.0000 -0.0000 -0.0000
vn -0.0000 1.0000 -0.0000
vn -1.0000 -0.0000 -0.0000
vn -0.7071 -0.7071 -0.0000
vn 0.7071 -0.7071 -0.0000
vn -0.7071 0.7071 -0.0000
vn 0.7071 0.7071 -0.0000
vt 0.493775 0.118682
vt 0.491814 0.117073
vt 0.493777 0.115464
vt 0.348751 0.286426
vt 0.339355 0.286479
vt 0.339292 0.275375
vt 0.348687 0.275322
vt 0.349533 0.276158
vt 0.349587 0.285580
vt 0.338509 0.285643
vt 0.338456 0.276221
vt 0.162486 0.408617
vt 0.157036 0.408617
vt 0.157043 0.405399
vt 0.162493 0.405399
vt 0.279311 0.408897
vt 0.279311 0.404967
vt 0.279315 0.404504
vt 0.279315 0.408434
vt 0.282426 0.404967
vt 0.282426 0.408897
vt 0.282430 0.408434
vt 0.282430 0.404504
vt 0.120304 0.119654
vt 0.120304 0.115482
vt 0.115026 0.115482
vt 0.115026 0.119654
vt 0.221624 0.411458
vt 0.221624 0.405541
vt 0.214137 0.405541
vt 0.214137 0.411458
s 0
usemtl DefaultMaterial.003
f 1/1/1 2/2/1 3/3/1
f 4/1/1 5/2/1 6/3/1
f 7/1/1 8/2/1 9/3/1
f 10/4/1 11/5/1 12/6/1
f 13/7/1 10/4/1 12/6/1
f 14/7/1 15/8/1 16/9/1
f 17/4/1 14/7/1 16/9/1
f 18/5/1 19/10/1 20/11/1
f 21/6/1 18/5/1 20/11/1
f 22/6/2 23/7/2 24/7/2
f 25/6/2 22/6/2 24/7/2
f 26/8/3 27/9/3 28/9/3
f 29/8/3 26/8/3 28/9/3
f 30/4/4 31/5/4 32/5/4
f 33/4/4 30/4/4 32/5/4
f 34/10/5 35/11/5 36/11/5
f 37/10/5 34/10/5 36/11/5
f 38/11/6 39/6/6 40/6/6
f 41/11/6 38/11/6 40/6/6
f 42/7/7 43/8/7 44/8/7
f 45/7/7 42/7/7 44/8/7
f 46/5/8 47/10/8 48/10/8
s 1
f 49/5/8 46/5/8 48/10/8
s 0
f 50/9/9 51/4/9 52/4/9
f 53/9/9 50/9/9 52/4/9
f 54/12/1 55/13/1 56/14/1
f 57/15/1 54/12/1 56/14/1
f 58/16/5 59/17/5 60/18/5
f 61/19/5 58/16/5 60/18/5
f 62/20/3 63/21/3 64/22/3
f 65/23/3 62/20/3 64/22/3
f 66/24/4 67/25/4 68/26/4
f 69/27/4 66/24/4 68/26/4
f 70/28/2 71/29/2 72/30/2
f 73/31/2 70/28/2 72/30/2
