# Blender 4.3.0
# www.blender.org
mtllib SwitchOnOff.mtl
o SubMesh_0.004
v 0.036515 0.002173 -0.023126
v 0.037962 0.009021 -0.023127
v 0.036515 0.002173 0.023127
v 0.037962 0.009021 0.023127
v 0.035055 0.018739 0.023127
v 0.035055 0.018739 -0.023127
v 0.029934 0.024462 0.023127
v 0.029934 0.024462 -0.023126
v -0.001983 0.008346 0.023127
v 0.029934 0.024462 0.023127
v 0.029934 0.024462 -0.023126
v -0.001983 0.008346 -0.023126
v -0.037738 0.008381 0.023127
v -0.001983 0.008346 0.023127
v -0.001983 0.008346 -0.023126
v -0.037738 0.008381 -0.023127
v -0.033589 -0.014486 -0.023127
v -0.033588 -0.014486 0.023127
v -0.037962 -0.009021 -0.023127
v -0.037962 -0.009021 0.023127
v -0.039738 0.000966 -0.023127
v -0.039738 0.000966 0.023127
v -0.037738 0.008381 -0.023127
v -0.037738 0.008381 0.023127
v -0.001983 0.008346 -0.023126
v 0.029934 0.024462 -0.023126
v 0.035055 0.018739 -0.023127
v 0.001463 -0.006157 -0.023126
v 0.037962 0.009021 -0.023127
v 0.036515 0.002173 -0.023126
v -0.039738 0.000966 -0.023127
v -0.037738 0.008381 -0.023127
v -0.037962 -0.009021 -0.023127
v -0.033589 -0.014486 -0.023127
v -0.001983 0.008346 0.023127
v -0.037738 0.008381 0.023127
v -0.039738 0.000966 0.023127
v 0.001463 -0.006157 0.023127
v -0.037962 -0.009021 0.023127
v -0.033588 -0.014486 0.023127
v 0.035055 0.018739 0.023127
v 0.029934 0.024462 0.023127
v 0.037962 0.009021 0.023127
v 0.036515 0.002173 0.023127
vn 0.9784 -0.2068 -0.0000
vn 0.7452 0.6669 -0.0002
vn 0.7452 0.6668 -0.0000
vn 0.7452 0.6669 -0.0000
vn -0.4507 0.8927 -0.0000
vn 0.0010 1.0000 -0.0000
vn -0.7808 -0.6248 -0.0000
vn -0.9655 0.2604 -0.0000
vn -0.0000 -0.0000 -1.0000
vn -0.0000 -0.0000 1.0000
vt 0.356816 0.563639
vt 0.364798 0.563639
vt 0.356816 0.617544
vt 0.364798 0.617544
vt 0.376124 0.617544
vt 0.376124 0.563639
vt 0.382793 0.617544
vt 0.382793 0.563639
vt 0.949583 0.949583
vt 0.799103 0.949583
vt 0.799103 0.799103
vt 0.949583 0.799103
vt 0.357027 0.671928
vt 0.357027 0.618023
vt 0.363396 0.671928
vt 0.363396 0.618023
vt 0.375036 0.671928
vt 0.375036 0.618023
vt 0.383677 0.671928
vt 0.383677 0.618023
vt 0.124059 0.613057
vt 0.105276 0.575860
vt 0.111946 0.569891
vt 0.140960 0.609041
vt 0.123272 0.566503
vt 0.131253 0.568190
vt 0.132659 0.657057
vt 0.124017 0.654727
vt 0.144298 0.654988
vt 0.150668 0.649891
vt 0.085596 0.613057
vt 0.085637 0.654727
vt 0.076995 0.657058
vt 0.068694 0.609040
vt 0.065356 0.654988
vt 0.058986 0.649891
vt 0.097708 0.569891
vt 0.104378 0.575860
vt 0.086382 0.566503
vt 0.078401 0.568190
s 0
usemtl DefaultMaterial.004
f 1/1/1 2/2/1 3/3/1
f 2/2/1 4/4/1 3/3/1
s 1
f 5/5/2 4/4/1 2/2/1
f 6/6/3 5/5/2 2/2/1
s 0
f 7/7/4 5/5/4 6/6/4
f 8/8/4 7/7/4 6/6/4
f 9/9/5 10/10/5 11/11/5
f 12/12/5 9/9/5 11/11/5
f 13/9/6 14/10/6 15/11/6
f 16/12/6 13/9/6 15/11/6
f 17/13/7 18/14/7 19/15/7
f 18/14/7 20/16/7 19/15/7
s 1
f 19/15/7 20/16/7 21/17/8
f 20/16/7 22/18/8 21/17/8
s 0
f 21/17/8 22/18/8 23/19/8
f 22/18/8 24/20/8 23/19/8
f 25/21/9 26/22/9 27/23/9
f 27/23/9 28/24/9 25/21/9
f 27/23/9 29/25/9 28/24/9
f 28/24/9 29/25/9 30/26/9
f 31/27/9 25/21/9 28/24/9
f 31/27/9 32/28/9 25/21/9
f 31/27/9 28/24/9 33/29/9
f 33/29/9 28/24/9 34/30/9
f 35/31/10 36/32/10 37/33/10
f 38/34/10 35/31/10 37/33/10
f 38/34/10 37/33/10 39/35/10
f 39/35/10 40/36/10 38/34/10
f 38/34/10 41/37/10 35/31/10
f 41/37/10 42/38/10 35/31/10
f 38/34/10 43/39/10 41/37/10
f 43/39/10 38/34/10 44/40/10
