# Blender 4.3.0
# www.blender.org
mtllib SwitchBaseNoShadowInstance.mtl
o SubMesh_0.003
v -0.033872 -0.001181 -0.052668
v -0.033872 -0.010018 -0.052668
v -0.033872 -0.010018 0.055289
v -0.033871 -0.001181 0.055289
v 0.036130 -0.001181 0.055288
v -0.033871 -0.001181 0.055289
v -0.033872 -0.010018 0.055289
v 0.036130 -0.010018 0.055289
v 0.036130 -0.010018 0.055289
v 0.036130 -0.010018 -0.052668
v 0.036130 -0.001181 -0.052668
v 0.036130 -0.001181 0.055288
v -0.033872 -0.001181 -0.052668
v 0.036130 -0.001181 -0.052668
v 0.036130 -0.010018 -0.052668
v -0.033872 -0.010018 -0.052668
v 0.036130 -0.001181 -0.052668
v -0.033872 -0.001181 -0.052668
v -0.033871 -0.001181 0.055289
v 0.036130 -0.001181 0.055288
vn -1.0000 -0.0000 -0.0000
vn -0.0000 -0.0000 1.0000
vn 1.0000 -0.0000 -0.0000
vn -0.0000 -0.0000 -1.0000
vn -0.0000 1.0000 -0.0000
vt 0.220610 0.400710
vt 0.215730 0.400710
vt 0.215730 0.405591
vt 0.220610 0.405591
vt 0.220610 0.410471
vt 0.215730 0.410471
vt 0.215730 0.415351
vt 0.220610 0.415351
vt 0.220610 0.420232
vt 0.215730 0.420232
vt 0.096121 0.421023
vt 0.091241 0.421023
vt 0.091241 0.425903
vt 0.096121 0.425903
s 0
usemtl DefaultMaterial.003
f 1/1/1 2/2/1 3/3/1
f 4/4/1 1/1/1 3/3/1
f 5/5/2 6/4/2 7/3/2
f 8/6/2 5/5/2 7/3/2
f 9/6/3 10/7/3 11/8/3
f 12/5/3 9/6/3 11/8/3
f 13/9/4 14/8/4 15/7/4
f 16/10/4 13/9/4 15/7/4
f 17/11/5 18/12/5 19/13/5
f 20/14/5 17/11/5 19/13/5
