# Blender 4.3.0
# www.blender.org
mtllib ValveHandleOnOff.mtl
o ValveHandleOnOff
v 0.010000 0.087024 -0.017320
v 0.020000 0.087024 0.000000
v 0.020000 0.061723 0.000000
v 0.010000 0.061723 -0.017320
v -0.010000 0.087024 -0.017320
v 0.010000 0.087024 -0.017320
v 0.010000 0.061723 -0.017320
v -0.010000 0.061723 -0.017320
v -0.020000 0.087024 0.000000
v -0.010000 0.087024 -0.017320
v -0.010000 0.061723 -0.017320
v -0.020000 0.061723 0.000000
v -0.010000 0.087024 0.017321
v -0.020000 0.087024 0.000000
v -0.020000 0.061723 0.000000
v -0.010000 0.061723 0.017321
v 0.010000 0.087024 0.017321
v -0.010000 0.087024 0.017321
v -0.010000 0.061723 0.017321
v 0.010000 0.061723 0.017321
v 0.020000 0.087024 0.000000
v 0.010000 0.087024 0.017321
v 0.010000 0.061723 0.017321
v 0.020000 0.061723 0.000000
v -0.010000 0.087024 0.017321
v 0.010000 0.087024 0.017321
v -0.020000 0.087024 0.000000
v 0.020000 0.087024 0.000000
v 0.010000 0.087024 -0.017320
v -0.010000 0.087024 -0.017320
v 0.021765 0.061723 -0.027248
v 0.021765 0.061723 0.023686
v -0.021432 0.061723 0.023686
v -0.021432 0.061723 -0.027248
v 0.021765 0.075329 -0.021612
v -0.021432 0.075329 -0.021612
v -0.021432 0.075329 0.029322
v 0.021765 0.075329 0.029322
v 0.008743 0.052239 0.052413
v -0.008410 0.052239 0.052413
v -0.008410 0.038632 0.046777
v 0.008743 0.038632 0.046777
v 0.021765 0.075329 -0.021612
v 0.021765 0.075329 0.029322
v 0.021765 0.061723 0.023686
v 0.021765 0.061723 -0.027248
v 0.021765 0.098105 -0.063630
v 0.021765 0.111711 -0.057994
v -0.012159 0.111711 -0.229466
v 0.012492 0.111711 -0.229466
v 0.012492 0.098105 -0.229466
v -0.012159 0.098105 -0.229466
v -0.021432 0.061723 0.023686
v -0.021432 0.075329 0.029322
v -0.021432 0.061723 -0.027248
v -0.021432 0.075329 -0.021612
v -0.021432 0.111711 -0.057994
v -0.021432 0.098105 -0.063630
v 0.008743 0.038632 0.046777
v -0.008410 0.038632 0.046777
v -0.021432 0.061723 0.023686
v 0.021765 0.061723 0.023686
v 0.008743 0.052239 0.052413
v 0.008743 0.038632 0.046777
v 0.021765 0.061723 0.023686
v 0.021765 0.075329 0.029322
v -0.008410 0.052239 0.052413
v 0.008743 0.052239 0.052413
v 0.021765 0.075329 0.029322
v -0.021432 0.075329 0.029322
v -0.008410 0.038632 0.046777
v -0.008410 0.052239 0.052413
v -0.021432 0.075329 0.029322
v -0.021432 0.061723 0.023686
v -0.021432 0.098105 -0.063630
v 0.021765 0.098105 -0.063630
v 0.021765 0.061723 -0.027248
v -0.021432 0.061723 -0.027248
v 0.021765 0.111711 -0.057994
v -0.021432 0.111711 -0.057994
v -0.021432 0.075329 -0.021612
v 0.021765 0.075329 -0.021612
v -0.021432 0.098105 -0.218071
v 0.021765 0.098105 -0.218071
v 0.021765 0.098105 -0.063630
v -0.021432 0.098105 -0.063630
v -0.021432 0.111711 -0.218071
v -0.021432 0.098105 -0.218071
v -0.021432 0.098105 -0.063630
v -0.021432 0.111711 -0.057994
v 0.021765 0.111711 -0.057994
v 0.021765 0.111711 -0.218071
v -0.021432 0.111711 -0.057994
v -0.021432 0.111711 -0.218071
v 0.012492 0.111711 -0.229466
v -0.012159 0.111711 -0.229466
v 0.021765 0.098105 -0.218071
v 0.021765 0.111711 -0.218071
v 0.021765 0.111711 -0.057994
v 0.021765 0.098105 -0.063630
v -0.012159 0.098105 -0.229466
v 0.012492 0.098105 -0.229466
v 0.021765 0.098105 -0.218071
v -0.021432 0.098105 -0.218071
v -0.012159 0.111711 -0.229466
v -0.012159 0.098105 -0.229466
v -0.021432 0.098105 -0.218071
v -0.021432 0.111711 -0.218071
v 0.012492 0.098105 -0.229466
v 0.012492 0.111711 -0.229466
v 0.021765 0.111711 -0.218071
v 0.021765 0.098105 -0.218071
v 0.010000 -0.002046 -0.017320
v 0.010000 0.061723 -0.017320
v 0.020000 -0.002046 0.000000
v 0.020000 0.061723 0.000000
v 0.010000 -0.002046 0.017321
v 0.010000 0.061723 0.017321
v -0.010000 0.061723 -0.017320
v 0.010000 0.061723 -0.017320
v 0.010000 -0.002046 -0.017320
v -0.010000 -0.002046 -0.017320
v -0.020000 0.061723 0.000000
v -0.010000 0.061723 -0.017320
v -0.010000 -0.002046 -0.017320
v -0.020000 -0.002046 0.000000
v -0.010000 0.061723 0.017321
v -0.010000 -0.002046 0.017321
v 0.010000 0.061723 0.017321
v 0.010000 -0.002046 0.017321
vn 0.8660 -0.0000 -0.5000
vn -0.0000 -0.0000 -1.0000
vn -0.8660 -0.0000 -0.5000
vn -0.8660 -0.0000 0.5000
vn -0.0000 -0.0000 1.0000
vn 0.8660 -0.0000 0.5000
vn -0.0000 1.0000 -0.0000
vn -0.0000 -1.0000 -0.0000
vn -0.0000 -0.3827 0.9239
vn 1.0000 -0.0000 -0.0000
vn -1.0000 -0.0000 -0.0000
vn -0.0000 -0.7071 -0.7071
vn 0.9181 -0.1517 0.3661
vn -0.0000 0.7071 0.7071
vn -0.9181 -0.1517 0.3661
vn -0.7756 -0.0000 -0.6312
vn 0.7756 -0.0000 -0.6312
vn 0.5000 -0.0000 -0.8660
vn 0.5000 -0.0000 0.8660
vn -0.5000 -0.0000 -0.8660
vn -0.5000 -0.0000 0.8660
vt 0.143250 0.203635
vt 0.142710 0.203635
vt 0.142710 0.201899
vt 0.143250 0.201899
vt 0.142398 0.200163
vt 0.143021 0.200163
vt 0.143021 0.201899
vt 0.142398 0.201899
vt 0.142710 0.203635
vt 0.142170 0.203635
vt 0.142170 0.201899
vt 0.142710 0.201899
vt 0.143250 0.203635
vt 0.143250 0.201899
vt 0.143021 0.203635
vt 0.142398 0.203635
vt 0.142398 0.201899
vt 0.143021 0.201899
vt 0.142170 0.203635
vt 0.142170 0.201899
vt 0.173013 0.234089
vt 0.173013 0.233466
vt 0.173553 0.234401
vt 0.173553 0.233154
vt 0.174093 0.233466
vt 0.174093 0.234089
vt 0.170492 0.204282
vt 0.170492 0.205694
vt 0.169146 0.205693
vt 0.169146 0.204282
vt 0.208222 0.233937
vt 0.206875 0.233937
vt 0.206875 0.232526
vt 0.208222 0.232525
vt 0.235056 0.234099
vt 0.235056 0.234634
vt 0.234632 0.234634
vt 0.234632 0.234099
vt 0.234489 0.234226
vt 0.234489 0.235637
vt 0.234065 0.235637
vt 0.234065 0.234226
vt 0.235199 0.233096
vt 0.235623 0.233096
vt 0.172112 0.237594
vt 0.172880 0.237595
vt 0.172880 0.238018
vt 0.172111 0.238019
vt 0.234065 0.233096
vt 0.234489 0.233096
vt 0.234065 0.234507
vt 0.234489 0.234507
vt 0.235623 0.235637
vt 0.235199 0.235637
vt 0.170086 0.206539
vt 0.169551 0.206539
vt 0.234421 0.234220
vt 0.234421 0.233796
vt 0.235266 0.234513
vt 0.235266 0.234937
vt 0.207279 0.231810
vt 0.207814 0.231809
vt 0.235266 0.233796
vt 0.235266 0.234220
vt 0.234421 0.234937
vt 0.234421 0.234513
vt 0.169146 0.203152
vt 0.170492 0.203152
vt 0.208222 0.235067
vt 0.206875 0.235067
vt 0.172272 0.205878
vt 0.170926 0.205878
vt 0.170926 0.200885
vt 0.172272 0.200885
vt 0.171823 0.237239
vt 0.171399 0.237239
vt 0.171399 0.232247
vt 0.171823 0.232247
vt 0.138453 0.232797
vt 0.138453 0.237790
vt 0.137107 0.232797
vt 0.137107 0.237790
vt 0.138164 0.238145
vt 0.137396 0.238145
vt 0.173593 0.237240
vt 0.173169 0.237239
vt 0.173169 0.232247
vt 0.173593 0.232247
vt 0.171983 0.203560
vt 0.171215 0.203558
vt 0.170926 0.203204
vt 0.172272 0.203204
vt 0.171823 0.237595
vt 0.171399 0.237595
vt 0.173593 0.237595
vt 0.173169 0.237595
vt 0.317814 0.824911
vt 0.317814 0.813658
vt 0.320078 0.824911
vt 0.320078 0.813658
vt 0.322342 0.824911
vt 0.322342 0.813658
vt 0.317709 0.824911
vt 0.315095 0.824911
vt 0.315095 0.813658
vt 0.317709 0.813658
vt 0.312701 0.813658
vt 0.314965 0.813658
vt 0.314965 0.824911
vt 0.312701 0.824911
vt 0.310437 0.813658
vt 0.310437 0.824911
vt 0.307688 0.813658
vt 0.307688 0.824911
s 0
usemtl DefaultMaterial.004
f 1/1/1 2/2/1 3/3/1
f 4/4/1 1/1/1 3/3/1
f 5/5/2 6/6/2 7/7/2
f 8/8/2 5/5/2 7/7/2
f 9/9/3 10/10/3 11/11/3
f 12/12/3 9/9/3 11/11/3
f 13/13/4 14/9/4 15/12/4
f 16/14/4 13/13/4 15/12/4
f 17/15/5 18/16/5 19/17/5
f 20/18/5 17/15/5 19/17/5
f 21/2/6 22/19/6 23/20/6
f 24/3/6 21/2/6 23/20/6
f 25/21/7 26/22/7 27/23/7
f 26/22/7 28/24/7 27/23/7
f 28/24/7 29/25/7 27/23/7
f 29/25/7 30/26/7 27/23/7
f 31/27/8 32/28/8 33/29/8
f 34/30/8 31/27/8 33/29/8
f 35/31/7 36/32/7 37/33/7
f 38/34/7 35/31/7 37/33/7
f 39/35/9 40/36/9 41/37/9
f 42/38/9 39/35/9 41/37/9
f 43/39/10 44/40/10 45/41/10
f 46/42/10 43/39/10 45/41/10
f 46/42/10 47/43/10 43/39/10
f 47/43/10 48/44/10 43/39/10
f 49/45/2 50/46/2 51/47/2
f 52/48/2 49/45/2 51/47/2
f 53/49/11 54/50/11 55/51/11
f 54/50/11 56/52/11 55/51/11
f 56/52/11 57/53/11 55/51/11
f 57/53/11 58/54/11 55/51/11
f 59/55/12 60/56/12 61/29/12
f 62/28/12 59/55/12 61/29/12
f 63/57/13 64/58/13 65/59/13
f 66/60/13 63/57/13 65/59/13
f 67/61/14 68/62/14 69/34/14
f 70/33/14 67/61/14 69/34/14
f 71/63/15 72/64/15 73/65/15
f 74/66/15 71/63/15 73/65/15
f 75/67/12 76/68/12 77/27/12
f 78/30/12 75/67/12 77/27/12
f 79/69/14 80/70/14 81/32/14
f 82/31/14 79/69/14 81/32/14
f 83/71/8 84/72/8 85/73/8
f 86/74/8 83/71/8 85/73/8
f 87/75/11 88/76/11 89/77/11
f 90/78/11 87/75/11 89/77/11
f 91/79/7 92/80/7 93/81/7
f 92/80/7 94/82/7 93/81/7
f 92/80/7 95/83/7 94/82/7
f 95/83/7 96/84/7 94/82/7
f 97/85/10 98/86/10 99/87/10
f 100/88/10 97/85/10 99/87/10
f 101/89/8 102/90/8 103/91/8
f 104/92/8 101/89/8 103/91/8
f 105/93/16 106/94/16 107/76/16
f 108/75/16 105/93/16 107/76/16
f 109/95/17 110/96/17 111/86/17
f 112/85/17 109/95/17 111/86/17
s 1
f 113/97/18 114/98/18 115/99/10
f 114/98/18 116/100/10 115/99/10
f 115/99/10 116/100/10 117/101/19
f 116/100/10 118/102/19 117/101/19
f 119/103/20 120/104/18 121/105/18
f 122/106/20 119/103/20 121/105/18
f 123/107/11 124/108/20 125/109/20
f 126/110/11 123/107/11 125/109/20
f 127/111/21 123/107/11 126/110/11
f 128/112/21 127/111/21 126/110/11
f 129/113/19 127/111/21 128/112/21
f 130/114/19 129/113/19 128/112/21
